<svg width="30" height="30" viewBox="0 0 30 30" fill="none" xmlns="http://www.w3.org/2000/svg">
<rect width="30" height="30" fill="#F5F5F5"/>
<g clip-path="url(#clip0_0_1)">
<rect x="-789" y="-181" width="1920" height="900" fill="white"/>
<circle cx="10.5" cy="3.5" r="2.5" fill="#ECECEC"/>
<circle cx="10.5" cy="20.5" r="2.5" fill="#ECECEC"/>
<path d="M-37.5 17L-47.5 11.2265V22.7735L-37.5 17ZM-48.9375 16H-56.5625V18H-48.9375V16ZM-64.1875 16H-68V18H-64.1875V16ZM-68 16C-69.4897 16 -70.9126 16.2967 -72.2109 16.8351L-71.4448 18.6825C-70.385 18.2431 -69.2222 18 -68 18V16ZM-78.1649 22.7891C-78.7033 24.0874 -79 25.5103 -79 27H-77C-77 25.7778 -76.7569 24.615 -76.3175 23.5552L-78.1649 22.7891ZM-79 27V31.3846H-77V27H-79ZM-79 40.1538V48.9231H-77V40.1538H-79ZM-79 57.6923V66.4615H-77V57.6923H-79ZM-79 75.2308V84H-77V75.2308H-79ZM-79 92.7692V101.538H-77V92.7692H-79ZM-79 110.308V119.077H-77V110.308H-79ZM-79 127.846V136.615H-77V127.846H-79ZM-79 145.385V154.154H-77V145.385H-79ZM-79 162.923V171.692H-77V162.923H-79ZM-79 180.462V189.231H-77V180.462H-79ZM-79 198V206.769H-77V198H-79ZM-79 215.538V224.308H-77V215.538H-79ZM-79 233.077V241.846H-77V233.077H-79ZM-79 250.615V255H-77V250.615H-79ZM-79 255C-79 256.49 -78.7033 257.913 -78.1649 259.211L-76.3175 258.445C-76.7569 257.385 -77 256.222 -77 255H-79ZM-72.2109 265.165C-70.9126 265.703 -69.4897 266 -68 266V264C-69.2222 264 -70.385 263.757 -71.4448 263.317L-72.2109 265.165ZM-68 266H-63.3611V264H-68V266ZM-54.0833 266H-44.8056V264H-54.0833V266ZM-35.5278 266H-26.25V264H-35.5278V266ZM-16.9722 266H-7.69444V264H-16.9722V266ZM1.58334 266H10.8611V264H1.58334V266ZM20.1389 266H29.4167V264H20.1389V266ZM38.6944 266H47.9722V264H38.6944V266ZM57.25 266H66.5278V264H57.25V266ZM75.8056 266H85.0833V264H75.8056V266ZM94.3611 266H99V264H94.3611V266Z" fill="#A2A2A2"/>
<g filter="url(#filter0_d_0_1)">
<path d="M-21 -4C-21 -8.41828 -17.4183 -12 -13 -12H293C297.418 -12 301 -8.41828 301 -4V89C301 93.4183 297.418 97 293 97H-13C-17.4183 97 -21 93.4183 -21 89V-4Z" fill="#FEFEFE"/>
<path d="M-20.5 -4C-20.5 -8.14214 -17.1421 -11.5 -13 -11.5H293C297.142 -11.5 300.5 -8.14214 300.5 -4V89C300.5 93.1421 297.142 96.5 293 96.5H-13C-17.1421 96.5 -20.5 93.1421 -20.5 89V-4Z" stroke="#D8D8D8"/>
</g>
<path d="M-20 -3C-20 -7.41828 -16.4183 -11 -12 -11H292C296.418 -11 300 -7.41828 300 -3V41H-20V-3Z" fill="#F5FFEE"/>
<circle cx="15" cy="15" r="15" fill="#5FAF2D"/>
<path d="M7.87505 12.645L14.6251 16.545C14.7391 16.6108 14.8684 16.6455 15.0001 16.6455C15.1317 16.6455 15.261 16.6108 15.3751 16.545L22.1251 12.645C22.2384 12.5795 22.3327 12.4856 22.3984 12.3724C22.4642 12.2593 22.4993 12.1309 22.5001 12C22.5006 11.8678 22.4662 11.7379 22.4003 11.6233C22.3345 11.5087 22.2395 11.4136 22.1251 11.3475L15.3751 7.45497C15.261 7.38915 15.1317 7.35449 15.0001 7.35449C14.8684 7.35449 14.7391 7.38915 14.6251 7.45497L7.87505 11.3475C7.7606 11.4136 7.66564 11.5087 7.59979 11.6233C7.53393 11.7379 7.49953 11.8678 7.50005 12C7.50084 12.1309 7.53587 12.2593 7.60166 12.3724C7.66745 12.4856 7.7617 12.5795 7.87505 12.645ZM15.0001 8.99997L20.2501 12L15.0001 15L9.75005 12L15.0001 8.99997ZM21.3751 14.3775L15.0001 18L8.62505 14.3475C8.53945 14.2979 8.44489 14.2657 8.3468 14.2528C8.24872 14.2399 8.14906 14.2466 8.05355 14.2724C7.95805 14.2982 7.86859 14.3426 7.79033 14.4031C7.71207 14.4636 7.64655 14.539 7.59755 14.625C7.49977 14.7972 7.47407 15.0011 7.52606 15.1922C7.57805 15.3833 7.7035 15.546 7.87505 15.645L14.6251 19.545C14.7391 19.6108 14.8684 19.6455 15.0001 19.6455C15.1317 19.6455 15.261 19.6108 15.3751 19.545L22.1251 15.645C22.2966 15.546 22.4221 15.3833 22.474 15.1922C22.526 15.0011 22.5003 14.7972 22.4026 14.625C22.3536 14.539 22.288 14.4636 22.2098 14.4031C22.1315 14.3426 22.0421 14.2982 21.9466 14.2724C21.8511 14.2466 21.7514 14.2399 21.6533 14.2528C21.5552 14.2657 21.4607 14.2979 21.3751 14.3475V14.3775ZM21.3751 17.3775L15.0001 21L8.62505 17.3475C8.53945 17.2979 8.44489 17.2657 8.3468 17.2528C8.24872 17.2399 8.14906 17.2466 8.05355 17.2724C7.95805 17.2982 7.86859 17.3426 7.79033 17.4031C7.71207 17.4636 7.64655 17.539 7.59755 17.625C7.49977 17.7972 7.47407 18.0011 7.52606 18.1922C7.57805 18.3833 7.7035 18.546 7.87505 18.645L14.6251 22.545C14.7391 22.6108 14.8684 22.6455 15.0001 22.6455C15.1317 22.6455 15.261 22.6108 15.3751 22.545L22.1251 18.645C22.2966 18.546 22.4221 18.3833 22.474 18.1922C22.526 18.0011 22.5003 17.7972 22.4026 17.625C22.3536 17.539 22.288 17.4636 22.2098 17.4031C22.1315 17.3426 22.0421 17.2982 21.9466 17.2724C21.8511 17.2466 21.7514 17.2399 21.6533 17.2528C21.5552 17.2657 21.4607 17.2979 21.3751 17.3475V17.3775Z" fill="white"/>
</g>
<defs>
<filter id="filter0_d_0_1" x="-37" y="-28" width="354" height="141" filterUnits="userSpaceOnUse" color-interpolation-filters="sRGB">
<feFlood flood-opacity="0" result="BackgroundImageFix"/>
<feColorMatrix in="SourceAlpha" type="matrix" values="0 0 0 0 0 0 0 0 0 0 0 0 0 0 0 0 0 0 127 0" result="hardAlpha"/>
<feOffset/>
<feGaussianBlur stdDeviation="8"/>
<feComposite in2="hardAlpha" operator="out"/>
<feColorMatrix type="matrix" values="0 0 0 0 0 0 0 0 0 0 0 0 0 0 0 0 0 0 0.06 0"/>
<feBlend mode="normal" in2="BackgroundImageFix" result="effect1_dropShadow_0_1"/>
<feBlend mode="normal" in="SourceGraphic" in2="effect1_dropShadow_0_1" result="shape"/>
</filter>
<clipPath id="clip0_0_1">
<rect x="-789" y="-181" width="1920" height="900" fill="white"/>
</clipPath>
</defs>
</svg>
